<svg xmlns="http://www.w3.org/2000/svg" viewBox="0 0 512 512" role="img" aria-labelledby="title desc">
  <title id="title">py-condiments sticker</title>
  <desc id="desc">OmicVerse repository hex sticker for py-condiments.</desc>
  <defs>
    <linearGradient id="bg" x1="112" y1="90" x2="398" y2="430" gradientUnits="userSpaceOnUse">
      <stop offset="0" stop-color="#050706"/>
      <stop offset=".58" stop-color="#020403"/>
      <stop offset="1" stop-color="#000000"/>
    </linearGradient>
  </defs>
  <polygon points="256,34 450,146 450,368 256,480 62,368 62,146" fill="#000000" opacity=".34"/>
  <polygon points="256,22 458,139 458,373 256,490 54,373 54,139" fill="url(#bg)" stroke="#0B0F0A" stroke-width="19" stroke-linejoin="round"/>
  <polygon points="256,22 458,139 458,373 256,490 54,373 54,139" fill="none" stroke="#E8FFE0" stroke-width="12" stroke-linejoin="round"/>
  <g opacity=".22" stroke="#3FD36B" stroke-width="2.2">
    <path d="M112 166h288M100 222h312M100 278h312M112 334h288"/>
    <path d="M152 126v236M204 104v274M256 96v286M308 104v274M360 126v236"/>
  </g>
  <g id="motif">
    <path d="M184 156h54M274 156h54" stroke="#FFFFFF" stroke-width="7" stroke-linecap="round"/>
    <path d="M204 156c0 60-44 82-44 142 0 34 28 58 60 58s60-24 60-58c0-60-44-82-44-142" fill="#32D74B" opacity=".20" stroke="#FFFFFF" stroke-width="6"/>
    <path d="M294 156c0 60-44 82-44 142 0 34 28 58 60 58s60-24 60-58c0-60-44-82-44-142" fill="#FFD60A" opacity=".18" stroke="#FFFFFF" stroke-width="6"/>
    <path d="M170 284c42-26 80-26 116 0M262 320c34-28 68-28 98 0" fill="none" stroke="#00C7BE" stroke-width="7" stroke-linecap="round"/>
    <circle cx="220" cy="300" r="11" fill="#FF6961"/><circle cx="310" cy="268" r="11" fill="#32D74B"/>
  </g>
  <path id="label" d="M306.14,381.66 L311.31,390.61 L305.86,393.76 L292.27,370.22 L297.72,367.08 L299.16,369.57 Q299.43,367.43 300.39,365.93 Q301.35,364.44 303.13,363.41 Q306.28,361.59 309.75,362.92 Q313.22,364.26 315.50,368.20 Q317.77,372.14 317.20,375.82 Q316.62,379.49 313.47,381.31 Q311.69,382.34 309.91,382.42 Q308.13,382.50 306.14,381.66 Z M303.39,368.53 Q301.64,369.54 301.44,371.37 Q301.25,373.20 302.65,375.62 Q304.05,378.04 305.72,378.79 Q307.41,379.53 309.16,378.52 Q310.90,377.51 311.09,375.70 Q311.27,373.89 309.87,371.45 Q308.46,369.01 306.80,368.27 Q305.14,367.52 303.39,368.53 Z M312.35,358.63 L317.80,355.48 L329.06,364.41 L326.28,350.59 L331.73,347.44 L335.33,370.25 Q335.90,373.72 335.11,375.68 Q334.33,377.64 331.97,379.01 L328.82,380.83 L326.75,377.25 L328.46,376.27 Q329.84,375.47 330.22,374.66 Q330.60,373.86 330.29,372.51 L330.17,371.95 L312.35,358.63 Z M337.37,352.00 L346.92,346.48 L349.48,350.91 L339.92,356.43 L337.37,352.00 Z M361.93,330.71 L364.50,335.16 Q362.95,335.04 361.62,335.32 Q360.29,335.60 359.09,336.30 Q356.81,337.61 356.30,339.68 Q355.80,341.74 357.18,344.13 Q358.56,346.53 360.60,347.13 Q362.64,347.72 364.92,346.41 Q366.20,345.67 367.13,344.62 Q368.06,343.57 368.61,342.27 L371.18,346.73 Q370.17,347.94 368.99,348.93 Q367.82,349.93 366.49,350.70 Q361.88,353.36 357.90,352.50 Q353.94,351.63 351.50,347.41 Q349.07,343.19 350.30,339.33 Q351.54,335.46 356.16,332.79 Q357.49,332.02 358.93,331.50 Q360.37,330.99 361.93,330.71 Z M376.46,326.27 Q374.65,327.32 374.45,329.16 Q374.25,331.01 375.66,333.46 Q377.08,335.91 378.78,336.67 Q380.48,337.42 382.29,336.38 Q384.08,335.35 384.27,333.50 Q384.46,331.65 383.04,329.20 Q381.63,326.75 379.93,326.00 Q378.24,325.24 376.46,326.27 Z M374.21,322.37 Q378.61,319.83 382.45,320.78 Q386.30,321.72 388.72,325.92 Q391.15,330.13 390.05,333.93 Q388.94,337.73 384.54,340.27 Q380.13,342.82 376.27,341.89 Q372.41,340.95 369.98,336.74 Q367.56,332.54 368.68,328.73 Q369.79,324.92 374.21,322.37 Z M408.74,311.87 L414.73,322.25 L409.25,325.42 L408.28,323.73 L404.67,317.47 Q403.39,315.27 402.81,314.48 Q402.23,313.70 401.76,313.45 Q401.13,313.10 400.40,313.12 Q399.69,313.14 398.99,313.54 Q397.28,314.53 397.07,316.41 Q396.85,318.29 398.20,320.61 L403.04,329.00 L397.60,332.15 L387.75,315.10 L393.20,311.95 L394.64,314.45 Q395.01,312.25 395.99,310.74 Q396.97,309.23 398.64,308.26 Q401.59,306.56 404.17,307.49 Q406.74,308.41 408.74,311.87 Z M422.99,298.08 L417.71,288.95 L423.19,285.78 L436.87,309.47 L431.39,312.64 L429.97,310.17 Q429.71,312.33 428.76,313.81 Q427.81,315.30 426.03,316.32 Q422.88,318.14 419.40,316.81 Q415.93,315.47 413.66,311.53 Q411.38,307.58 411.96,303.91 Q412.54,300.24 415.69,298.42 Q417.46,297.40 419.23,297.32 Q421.00,297.24 422.99,298.08 Z M425.76,311.20 Q427.52,310.18 427.70,308.37 Q427.88,306.56 426.48,304.13 Q425.07,301.69 423.41,300.95 Q421.75,300.20 420.00,301.21 Q418.26,302.21 418.08,304.02 Q417.90,305.83 419.31,308.27 Q420.71,310.70 422.37,311.45 Q424.03,312.20 425.76,311.20 Z" fill="#FFFFFF"/>
</svg>
